<svg width="24" height="24" viewBox="0 0 24 24" fill="none" xmlns="http://www.w3.org/2000/svg">
<path d="M0 12C0 5.37258 5.37258 0 12 0C18.6274 0 24 5.37258 24 12C24 18.6274 18.6274 24 12 24C5.37258 24 0 18.6274 0 12Z" fill="#D1D5DB"/>
<path d="M11.3691 17H10.2207L5.55078 9.80469H5.50391C5.51562 9.99609 5.5293 10.2148 5.54492 10.4609C5.56055 10.7031 5.57227 10.9629 5.58008 11.2402C5.5918 11.5137 5.59766 11.793 5.59766 12.0781V17H4.67188V8.43359H5.81445L10.4668 15.6055H10.5078C10.5 15.4688 10.4902 15.2754 10.4785 15.0254C10.4668 14.7715 10.4551 14.5 10.4434 14.2109C10.4355 13.918 10.4316 13.6465 10.4316 13.3965V8.43359H11.3691V17ZM19.1401 17L18.0854 14.2812H14.6518L13.603 17H12.5952L15.9467 8.39844H16.8432L20.1713 17H19.1401ZM17.7866 13.3965L16.7846 10.6953C16.7612 10.625 16.7221 10.5098 16.6674 10.3496C16.6166 10.1895 16.5639 10.0234 16.5092 9.85156C16.4545 9.67969 16.4096 9.54102 16.3745 9.43555C16.3354 9.5957 16.2924 9.75586 16.2455 9.91602C16.2026 10.0723 16.1596 10.2188 16.1166 10.3555C16.0737 10.4883 16.0366 10.6016 16.0053 10.6953L14.9858 13.3965H17.7866Z" fill="#6B7280"/>
</svg>
