<svg width="24" height="24" viewBox="0 0 24 24" fill="none" xmlns="http://www.w3.org/2000/svg">
<path d="M0 12C0 5.37258 5.37258 0 12 0C18.6274 0 24 5.37258 24 12C24 18.6274 18.6274 24 12 24C5.37258 24 0 18.6274 0 12Z" fill="#B0E0D6"/>
<path d="M12 4.5V19.5" stroke="#035E61" stroke-width="0.75" stroke-linecap="round" stroke-linejoin="round"/>
<path d="M15.75 6.75H10.125C9.42881 6.75 8.76113 7.02656 8.26884 7.51884C7.77656 8.01113 7.5 8.67881 7.5 9.375C7.5 10.0712 7.77656 10.7389 8.26884 11.2312C8.76113 11.7234 9.42881 12 10.125 12H13.875C14.5712 12 15.2389 12.2766 15.7312 12.7688C16.2234 13.2611 16.5 13.9288 16.5 14.625C16.5 15.3212 16.2234 15.9889 15.7312 16.4812C15.2389 16.9734 14.5712 17.25 13.875 17.25H7.5" stroke="#035E61" stroke-width="0.75" stroke-linecap="round" stroke-linejoin="round"/>
</svg>
