<svg width="10" height="10" viewBox="0 0 10 10" fill="none" xmlns="http://www.w3.org/2000/svg">
<g clip-path="url(#clip0_1046_35511)">
<path d="M4.99992 9.16667C7.3011 9.16667 9.16658 7.30119 9.16658 5C9.16658 2.69881 7.3011 0.833334 4.99992 0.833334C2.69873 0.833334 0.833252 2.69881 0.833252 5C0.833252 7.30119 2.69873 9.16667 4.99992 9.16667Z" stroke="#035E61" stroke-width="0.8" stroke-linecap="round" stroke-linejoin="round"/>
<path d="M3.7876 3.75C3.88556 3.47153 4.07891 3.23671 4.33341 3.08714C4.58791 2.93757 4.88714 2.88289 5.17809 2.9328C5.46904 2.9827 5.73294 3.13397 5.92305 3.3598C6.11315 3.58564 6.2172 3.87147 6.21676 4.16667C6.21676 5 4.96676 5.41667 4.96676 5.41667" stroke="#035E61" stroke-width="0.8" stroke-linecap="round" stroke-linejoin="round"/>
<path d="M5 7.08333H5.00417" stroke="#035E61" stroke-width="0.8" stroke-linecap="round" stroke-linejoin="round"/>
</g>
<defs>
<clipPath id="clip0_1046_35511">
<rect width="10" height="10" fill="white"/>
</clipPath>
</defs>
</svg>
