<svg width="18" height="14" viewBox="0 0 18 14" fill="none" xmlns="http://www.w3.org/2000/svg">
<path d="M1 6.45117C0.516751 6.45117 0.125 6.84292 0.125 7.32617C0.125 7.80942 0.516751 8.20117 1 8.20117L1 6.45117ZM17.6187 7.94489C17.9604 7.60318 17.9604 7.04916 17.6187 6.70745L12.0503 1.13899C11.7085 0.797279 11.1545 0.797279 10.8128 1.13899C10.4711 1.4807 10.4711 2.03472 10.8128 2.37642L15.7626 7.32617L10.8128 12.2759C10.4711 12.6176 10.4711 13.1716 10.8128 13.5134C11.1545 13.8551 11.7085 13.8551 12.0503 13.5134L17.6187 7.94489ZM1 8.20117L17 8.20117V6.45117L1 6.45117L1 8.20117Z" fill="white"/>
</svg>
