<svg width="24" height="24" viewBox="0 0 24 24" fill="none" xmlns="http://www.w3.org/2000/svg">
<path d="M0 12C0 5.37258 5.37258 0 12 0C18.6274 0 24 5.37258 24 12C24 18.6274 18.6274 24 12 24C5.37258 24 0 18.6274 0 12Z" fill="#FFD878"/>
<path fill-rule="evenodd" clip-rule="evenodd" d="M18.2652 7.23483C18.4116 7.38128 18.4116 7.61872 18.2652 7.76517L10.0152 16.0152C9.86872 16.1616 9.63128 16.1616 9.48484 16.0152L5.73483 12.2652C5.58839 12.1187 5.58839 11.8813 5.73483 11.7348C5.88128 11.5884 6.11872 11.5884 6.26517 11.7348L9.75 15.2197L17.7348 7.23483C17.8813 7.08839 18.1187 7.08839 18.2652 7.23483Z" fill="#035E61" stroke="#035E61" stroke-width="0.75" stroke-linecap="round" stroke-linejoin="round"/>
</svg>
